# Blender v3.1.2 OBJ File: 'stul.blend'
# www.blender.org
mtllib stul3.mtl
o Cube
v 1.000000 0.720000 0.600000
v 1.000000 0.680000 0.600000
v 1.000000 0.720000 0.000000
v 1.000000 0.680000 0.000000
v 0.001708 0.720000 0.000000
v 0.001708 0.680000 0.000000
v 1.000000 0.720000 0.600000
v 1.000000 0.720000 0.000000
v 0.001708 0.720000 0.600000
v 0.001708 0.680000 0.600000
v 0.001708 0.720000 0.600000
v 0.854815 0.680000 0.525500
v 0.854815 -0.117699 0.525500
v 0.854815 0.680000 0.388526
v 0.854815 -0.117699 0.388526
v 0.492431 0.680000 0.525500
v 0.492431 -0.117699 0.525500
v 0.492431 0.680000 0.388526
v 0.492431 -0.117699 0.388526
v 1.000000 0.720000 -0.600000
v 1.000000 0.680000 -0.600000
v 1.000000 0.720000 -0.600000
v 0.001708 0.720000 -0.600000
v 0.001708 0.680000 -0.600000
v 0.001708 0.720000 -0.600000
v 0.854815 0.680000 -0.525500
v 0.854815 -0.117699 -0.525500
v 0.854815 0.680000 -0.388526
v 0.854815 -0.117699 -0.388526
v 0.492431 0.680000 -0.525500
v 0.492431 -0.117699 -0.525500
v 0.492431 0.680000 -0.388526
v 0.492431 -0.117699 -0.388526
v -1.000000 0.720000 0.600000
v -1.000000 0.680000 0.600000
v -1.000000 0.720000 0.000000
v -1.000000 0.680000 0.000000
v -0.001708 0.720000 0.000000
v -0.001708 0.680000 0.000000
v -1.000000 0.720000 0.600000
v -1.000000 0.720000 0.000000
v -0.001708 0.720000 0.600000
v -0.001708 0.680000 0.600000
v -0.001708 0.720000 0.600000
v -0.854815 0.680000 0.525500
v -0.854815 -0.117699 0.525500
v -0.854815 0.680000 0.388526
v -0.854815 -0.117699 0.388526
v -0.492431 0.680000 0.525500
v -0.492431 -0.117699 0.525500
v -0.492431 0.680000 0.388526
v -0.492431 -0.117699 0.388526
v -1.000000 0.720000 -0.600000
v -1.000000 0.680000 -0.600000
v -1.000000 0.720000 -0.600000
v -0.001708 0.720000 -0.600000
v -0.001708 0.680000 -0.600000
v -0.001708 0.720000 -0.600000
v -0.854815 0.680000 -0.525500
v -0.854815 -0.117699 -0.525500
v -0.854815 0.680000 -0.388526
v -0.854815 -0.117699 -0.388526
v -0.492431 0.680000 -0.525500
v -0.492431 -0.117699 -0.525500
v -0.492431 0.680000 -0.388526
v -0.492431 -0.117699 -0.388526
vt 0.375000 0.625000
vt 0.250214 0.750000
vt 0.250214 0.625000
vt 0.625000 0.625000
vt 0.625000 0.750000
vt 0.625000 0.750000
vt 0.375000 0.750000
vt 0.375000 0.874786
vt 0.749786 0.750000
vt 0.749786 0.750000
vt 0.749786 0.625000
vt 0.625000 0.625000
vt 0.625000 0.000000
vt 0.375000 0.250000
vt 0.375000 0.000000
vt 0.625000 0.250000
vt 0.375000 0.500000
vt 0.625000 0.500000
vt 0.375000 0.750000
vt 0.625000 0.750000
vt 0.375000 1.000000
vt 0.125000 0.750000
vt 0.125000 0.500000
vt 0.875000 0.500000
vt 0.250214 0.750000
vt 0.625000 0.750000
vt 0.375000 0.750000
vt 0.375000 0.874786
vt 0.625000 0.750000
vt 0.749786 0.750000
vt 0.375000 0.250000
vt 0.625000 0.000000
vt 0.375000 0.000000
vt 0.375000 0.500000
vt 0.625000 0.250000
vt 0.375000 0.750000
vt 0.625000 0.500000
vt 0.375000 1.000000
vt 0.625000 0.750000
vt 0.125000 0.750000
vt 0.125000 0.500000
vt 0.875000 0.500000
vt 0.250214 0.750000
vt 0.375000 0.625000
vt 0.250214 0.625000
vt 0.625000 0.625000
vt 0.625000 0.750000
vt 0.625000 0.625000
vt 0.375000 0.750000
vt 0.375000 0.874786
vt 0.625000 0.750000
vt 0.749786 0.750000
vt 0.749786 0.625000
vt 0.375000 0.250000
vt 0.625000 0.000000
vt 0.375000 0.000000
vt 0.375000 0.500000
vt 0.625000 0.250000
vt 0.375000 0.750000
vt 0.625000 0.500000
vt 0.375000 1.000000
vt 0.625000 0.750000
vt 0.125000 0.750000
vt 0.125000 0.500000
vt 0.875000 0.500000
vt 0.250214 0.750000
vt 0.625000 0.750000
vt 0.625000 0.750000
vt 0.375000 0.750000
vt 0.375000 0.874786
vt 0.749786 0.750000
vt 0.749786 0.750000
vt 0.625000 0.000000
vt 0.375000 0.250000
vt 0.375000 0.000000
vt 0.625000 0.250000
vt 0.375000 0.500000
vt 0.625000 0.500000
vt 0.375000 0.750000
vt 0.625000 0.750000
vt 0.375000 1.000000
vt 0.125000 0.750000
vt 0.125000 0.500000
vt 0.875000 0.500000
vt 0.625000 0.874786
vt 0.625000 1.000000
vt 0.875000 0.750000
vt 0.625000 0.874786
vt 0.749786 0.750000
vt 0.625000 1.000000
vt 0.875000 0.750000
vt 0.625000 0.874786
vt 0.749786 0.750000
vt 0.625000 1.000000
vt 0.875000 0.750000
vt 0.625000 0.874786
vt 0.625000 1.000000
vt 0.875000 0.750000
vn 0.0000 -1.0000 0.0000
vn 0.0000 0.0000 1.0000
vn 1.0000 0.0000 0.0000
vn 0.0000 1.0000 0.0000
vn 0.0000 0.0000 -1.0000
vn -1.0000 0.0000 0.0000
g Cube_Cube_Material
usemtl Material
s off
f 4/1/1 10/2/1 6/3/1
f 8/4/2 1/5/2 7/6/2
f 8/4/3 2/7/3 4/1/3
f 7/6/2 10/8/2 2/7/2
f 7/6/2 9/9/2 11/10/2
f 5/11/4 1/5/4 3/12/4
f 13/13/3 14/14/3 12/15/3
f 15/16/5 18/17/5 14/14/5
f 19/18/6 16/19/6 18/17/6
f 17/20/2 12/21/2 16/19/2
f 18/17/4 12/22/4 14/23/4
f 15/24/1 17/20/1 19/18/1
f 24/25/1 4/1/1 6/3/1
f 8/4/2 20/26/2 3/12/2
f 21/27/3 8/4/3 4/1/3
f 24/28/5 22/29/5 21/27/5
f 22/29/2 23/30/2 20/26/2
f 20/26/4 5/11/4 3/12/4
f 28/31/3 27/32/3 26/33/3
f 32/34/2 29/35/2 28/31/2
f 30/36/6 33/37/6 32/34/6
f 26/38/5 31/39/5 30/36/5
f 26/40/4 32/34/4 28/41/4
f 31/39/1 29/42/1 33/37/1
f 43/43/1 37/44/1 39/45/1
f 41/46/2 34/47/2 36/48/2
f 35/49/6 41/46/6 37/44/6
f 43/50/2 40/51/2 35/49/2
f 40/51/2 42/52/2 34/47/2
f 34/47/4 38/53/4 36/48/4
f 47/54/6 46/55/6 45/56/6
f 51/57/5 48/58/5 47/54/5
f 49/59/3 52/60/3 51/57/3
f 45/61/2 50/62/2 49/59/2
f 45/63/4 51/57/4 47/64/4
f 50/62/1 48/65/1 52/60/1
f 37/44/1 57/66/1 39/45/1
f 41/46/2 53/67/2 55/68/2
f 41/46/6 54/69/6 37/44/6
f 55/68/5 57/70/5 54/69/5
f 55/68/2 56/71/2 58/72/2
f 38/53/4 53/67/4 36/48/4
f 60/73/6 61/74/6 59/75/6
f 62/76/2 65/77/2 61/74/2
f 66/78/3 63/79/3 65/77/3
f 64/80/5 59/81/5 63/79/5
f 65/77/4 59/82/4 61/83/4
f 62/84/1 64/80/1 66/78/1
f 4/1/1 2/7/1 10/2/1
f 8/4/2 3/12/2 1/5/2
f 8/4/3 7/6/3 2/7/3
f 7/6/2 11/85/2 10/8/2
f 7/6/2 1/5/2 9/9/2
f 5/11/4 9/9/4 1/5/4
f 13/13/3 15/16/3 14/14/3
f 15/16/5 19/18/5 18/17/5
f 19/18/6 17/20/6 16/19/6
f 17/20/2 13/86/2 12/21/2
f 18/17/4 16/19/4 12/22/4
f 15/24/1 13/87/1 17/20/1
f 24/25/1 21/27/1 4/1/1
f 8/4/2 22/29/2 20/26/2
f 21/27/3 22/29/3 8/4/3
f 24/28/5 25/88/5 22/29/5
f 22/29/2 25/89/2 23/30/2
f 20/26/4 23/30/4 5/11/4
f 28/31/3 29/35/3 27/32/3
f 32/34/2 33/37/2 29/35/2
f 30/36/6 31/39/6 33/37/6
f 26/38/5 27/90/5 31/39/5
f 26/40/4 30/36/4 32/34/4
f 31/39/1 27/91/1 29/42/1
f 43/43/1 35/49/1 37/44/1
f 41/46/2 40/51/2 34/47/2
f 35/49/6 40/51/6 41/46/6
f 43/50/2 44/92/2 40/51/2
f 40/51/2 44/93/2 42/52/2
f 34/47/4 42/52/4 38/53/4
f 47/54/6 48/58/6 46/55/6
f 51/57/5 52/60/5 48/58/5
f 49/59/3 50/62/3 52/60/3
f 45/61/2 46/94/2 50/62/2
f 45/63/4 49/59/4 51/57/4
f 50/62/1 46/95/1 48/65/1
f 37/44/1 54/69/1 57/66/1
f 41/46/2 36/48/2 53/67/2
f 41/46/6 55/68/6 54/69/6
f 55/68/5 58/96/5 57/70/5
f 55/68/2 53/67/2 56/71/2
f 38/53/4 56/71/4 53/67/4
f 60/73/6 62/76/6 61/74/6
f 62/76/2 66/78/2 65/77/2
f 66/78/3 64/80/3 63/79/3
f 64/80/5 60/97/5 59/81/5
f 65/77/4 63/79/4 59/82/4
f 62/84/1 60/98/1 64/80/1
